<?xml version="1.0" standalone="no"?>
<!DOCTYPE svg PUBLIC "-//W3C//DTD SVG 20010904//EN"
 "http://www.w3.org/TR/2001/REC-SVG-20010904/DTD/svg10.dtd">
<svg version="1.0" xmlns="http://www.w3.org/2000/svg"
 width="500.000000pt" height="500.000000pt" viewBox="0 0 500.000000 500.000000"
 preserveAspectRatio="xMidYMid meet">

<g transform="translate(0.000000,500.000000) scale(0.100000,-0.100000)"
fill="#000000" stroke="none">
<path d="M2705 4899 c-4 -6 -30 -9 -59 -8 -31 1 -63 -4 -82 -14 -28 -14 -34
-14 -60 -1 -16 9 -30 11 -32 6 -2 -6 -12 -8 -23 -5 -13 4 -30 -4 -48 -21 -16
-15 -30 -23 -32 -17 -3 7 -18 4 -44 -9 -21 -11 -52 -20 -67 -20 -16 0 -33 -8
-42 -21 -10 -15 -21 -20 -36 -16 -13 3 -23 0 -27 -9 -3 -9 -12 -13 -21 -9 -19
7 -132 -108 -156 -159 -9 -19 -25 -36 -35 -39 -11 -3 -27 -20 -35 -38 -8 -19
-22 -45 -30 -59 -9 -14 -22 -41 -31 -60 -9 -19 -34 -60 -56 -90 -56 -78 -86
-139 -130 -265 -59 -170 -110 -396 -160 -710 -18 -110 -18 -110 -81 -65 -70
51 -130 36 -191 -49 -51 -70 -83 -137 -97 -202 -17 -75 -8 -269 14 -329 10
-25 21 -69 26 -99 13 -73 62 -175 96 -197 29 -20 90 -24 137 -10 l27 8 1 -113
c1 -133 6 -205 19 -274 25 -139 20 -281 -19 -552 -23 -155 -55 -225 -118 -260
-40 -22 -306 -113 -330 -113 -8 0 -12 -4 -9 -8 3 -5 -5 -8 -17 -8 -30 1 -49
-51 -24 -69 18 -13 23 -35 8 -35 -6 0 -13 4 -16 10 -11 17 -31 11 -32 -10 -1
-13 4 -20 16 -20 42 0 56 -59 18 -78 -12 -7 -33 -10 -46 -7 -24 4 -53 34 -45
47 2 4 1 9 -4 12 -4 2 -9 -5 -10 -17 -1 -13 9 -31 25 -44 22 -18 26 -30 28
-79 1 -34 6 -59 13 -62 7 -2 12 -10 12 -18 0 -8 -6 -11 -16 -7 -13 5 -15 2
-10 -15 9 -27 -6 -35 -30 -17 -23 17 -34 19 -34 4 0 -12 -25 -39 -35 -39 -4 0
-4 7 -1 16 4 9 1 23 -6 32 -30 35 -9 250 26 274 6 4 7 8 2 8 -10 0 -18 -7 -72
-58 -17 -16 -37 -32 -45 -35 -9 -4 -10 -6 -1 -6 6 -1 12 -11 12 -22 0 -16 5
-20 20 -16 13 3 20 0 20 -10 0 -8 -5 -11 -11 -7 -6 3 -15 1 -19 -6 -5 -8 -10
-3 -14 14 -8 31 -39 35 -68 9 -10 -9 -21 -14 -24 -10 -6 6 7 36 16 36 3 0 13
3 22 6 18 7 15 25 -3 25 -6 0 -7 -5 -3 -12 5 -8 2 -9 -9 -5 -10 3 -17 2 -17
-3 0 -6 -11 -10 -25 -10 -16 0 -25 -6 -25 -15 0 -8 5 -15 12 -15 6 0 8 -3 5
-6 -4 -4 -13 -2 -20 5 -11 8 -21 8 -41 -2 -27 -15 -26 -29 2 -20 15 4 15 3 2
-6 -8 -5 -25 -8 -37 -4 -15 3 -23 1 -23 -8 -1 -9 -6 -7 -15 5 -15 19 -15 19
-15 -3 0 -18 -3 -21 -13 -13 -10 9 -17 6 -27 -8 -8 -11 -18 -20 -23 -20 -5 0
-24 -12 -43 -26 -21 -16 -32 -21 -29 -12 4 10 -1 17 -14 21 -12 3 -21 1 -21
-4 0 -5 -7 -9 -16 -9 -8 0 -22 -7 -31 -15 -8 -8 -19 -13 -23 -10 -5 3 -31 -5
-57 -18 -26 -13 -65 -27 -85 -31 l-38 -7 0 -309 0 -310 373 0 c277 0 376 3
385 12 9 9 12 9 12 0 0 -17 231 -17 248 0 9 9 12 9 12 0 0 -7 11 -12 25 -12
14 0 25 5 25 12 0 9 3 9 12 0 15 -15 51 -15 66 0 9 9 12 9 12 0 0 -8 19 -12
56 -12 46 0 55 3 50 15 -3 9 0 15 8 15 8 0 16 -7 20 -15 4 -12 31 -15 157 -15
131 0 155 2 172 17 19 17 20 17 14 0 -6 -17 9 -18 269 -17 175 1 284 5 300 12
17 8 27 8 39 -2 8 -7 22 -10 30 -6 21 8 19 27 -2 19 -14 -4 -15 -3 -7 6 8 9
18 9 38 1 15 -5 32 -8 37 -4 5 3 9 1 9 -5 0 -5 -8 -12 -17 -14 -10 -3 16 -5
57 -6 55 -1 82 3 99 15 12 9 37 17 54 18 17 1 33 8 35 15 3 8 0 11 -7 7 -18
-12 -13 16 6 30 27 19 8 28 -29 14 -58 -21 -77 -33 -72 -42 8 -13 -9 -9 -29 7
-19 14 -51 10 -42 -5 3 -5 -2 -13 -11 -18 -18 -10 -54 -5 -54 8 0 9 71 45 83
42 4 -1 7 3 7 10 0 6 7 3 15 -8 14 -18 14 -18 16 11 l1 30 8 -30 7 -30 11 28
c12 28 17 30 68 27 18 -1 35 4 39 10 4 7 -5 10 -29 8 -49 -3 -56 9 -11 18 24
4 32 9 24 14 -7 5 -19 6 -28 3 -12 -5 -13 -3 -5 6 9 10 21 10 50 2 25 -7 42
-7 48 -1 7 7 4 10 -8 10 -9 0 -15 4 -11 10 3 5 13 6 22 3 11 -4 14 -3 9 6 -4
7 2 19 16 31 l23 19 -25 -5 c-25 -5 -25 -5 -5 11 11 9 29 21 40 26 17 9 18 8
5 -3 -17 -15 -24 -74 -10 -83 5 -3 14 4 20 15 7 13 7 20 0 20 -5 0 -10 4 -10
10 0 5 6 9 13 7 8 -1 11 8 9 26 -3 29 12 57 30 57 5 0 6 -5 2 -12 -4 -7 -3 -8
5 -4 6 4 9 12 5 17 -10 16 28 39 44 27 15 -13 17 -11 26 22 7 24 6 24 -8 6
-13 -17 -16 -17 -16 -4 0 9 10 25 23 35 13 10 31 30 41 46 10 15 26 27 35 27
14 0 14 -2 1 -11 -13 -9 -13 -10 0 -6 8 2 14 14 13 26 -2 12 3 21 10 21 7 0
17 15 22 32 7 23 15 32 28 30 9 -2 17 2 17 8 0 5 -4 10 -8 10 -5 0 15 48 45
107 29 58 53 112 53 120 0 7 10 12 23 12 12 -1 15 -3 7 -5 -8 -3 -28 -39 -44
-82 -16 -42 -34 -80 -40 -84 -7 -5 -8 -11 -1 -15 12 -9 16 -43 6 -43 -9 0 -34
-69 -36 -98 0 -13 -7 -27 -15 -32 -8 -5 -11 -12 -8 -16 10 -9 -11 -46 -22 -39
-5 3 -11 1 -15 -5 -4 -6 -12 -7 -18 -3 -9 5 -9 3 -1 -8 16 -20 -1 -68 -18 -51
-7 7 -17 12 -22 12 -6 0 -5 -4 3 -9 9 -6 11 -16 5 -32 -4 -13 -7 -28 -6 -33 2
-4 -14 -23 -33 -42 -29 -27 -33 -34 -18 -35 13 -1 11 -3 -7 -9 -25 -8 -25 -8
5 -10 17 -1 24 -4 15 -7 -8 -3 -18 -11 -22 -17 -5 -8 -8 -7 -8 2 0 6 -5 12
-11 12 -6 0 -8 -8 -4 -19 5 -17 0 -21 -29 -27 -37 -6 -40 -24 -5 -24 10 0 19
-4 19 -10 0 -5 -6 -7 -12 -5 -7 3 -19 1 -27 -4 -13 -8 -13 -12 -1 -26 12 -14
12 -18 -1 -26 -19 -12 -39 -11 -39 1 0 6 -7 10 -15 10 -22 0 -18 -17 5 -23 12
-3 20 -14 20 -27 0 -16 4 -20 16 -16 9 3 18 6 20 6 2 0 4 9 4 21 0 17 4 20 23
16 32 -9 45 3 50 43 l4 35 1 -37 c1 -21 -4 -43 -13 -52 -22 -21 -8 -46 26 -46
35 0 109 22 109 32 0 4 -6 13 -13 20 -11 10 -11 15 2 30 10 11 17 14 22 7 3
-6 8 2 11 19 3 22 1 29 -9 25 -7 -3 -13 2 -13 11 0 9 5 16 10 16 14 0 13 27
-1 32 -8 3 -6 10 5 21 9 9 19 33 21 54 8 66 38 168 52 176 11 7 12 12 2 23
-10 12 -9 21 4 44 16 27 16 29 0 39 -16 9 -16 10 5 11 19 0 22 5 22 39 0 21 7
55 16 76 8 20 13 39 10 42 -3 3 4 23 15 45 11 22 22 52 24 67 2 14 4 26 5 26
1 0 3 12 4 28 1 15 -2 27 -6 27 -11 0 -10 38 1 44 4 3 11 29 15 57 6 43 9 49
21 39 8 -7 15 -18 15 -26 0 -7 8 -17 17 -23 13 -7 14 -12 6 -23 -6 -7 -11 -37
-11 -65 -1 -46 2 -53 19 -53 18 0 18 -2 -6 -27 -29 -32 -31 -43 -10 -43 8 0
15 -4 15 -10 0 -5 -9 -10 -20 -10 -11 0 -20 -7 -20 -15 0 -9 9 -15 21 -15 18
0 19 -2 9 -15 -7 -8 -19 -15 -26 -15 -8 0 -14 -5 -14 -11 0 -5 -4 -7 -10 -4
-5 3 -11 0 -11 -7 -6 -56 -4 -75 8 -89 11 -14 10 -20 -8 -43 -17 -21 -19 -29
-9 -41 10 -12 9 -15 -4 -15 -20 0 -43 -48 -39 -80 7 -47 4 -62 -14 -82 -9 -10
-19 -31 -21 -46 -2 -15 -7 -29 -12 -32 -24 -15 -51 -170 -30 -170 5 0 8 -20 6
-45 l-4 -45 53 0 c59 0 72 9 55 41 -10 17 -8 21 10 26 15 4 18 8 10 13 -7 4
-9 13 -5 20 6 10 10 9 16 -3 5 -9 17 -13 29 -10 13 3 22 -1 26 -11 10 -25 -4
-32 -21 -10 -17 22 -20 3 -5 -27 9 -16 7 -21 -12 -29 -16 -6 12 -9 95 -9 64
-1 117 3 117 7 0 5 -7 17 -15 28 -19 25 -19 30 5 54 16 16 17 20 4 20 -11 0
-13 6 -9 19 3 11 -1 35 -9 54 -8 20 -11 38 -8 42 4 4 -2 13 -12 21 -11 8 -14
14 -8 14 16 0 15 32 -3 66 -8 16 -15 51 -15 77 0 40 -3 50 -20 54 -22 6 -27
23 -7 23 9 0 8 3 -2 9 -11 7 -10 11 5 20 13 7 15 13 8 18 -15 10 -9 44 9 54 8
5 13 20 12 34 -2 14 1 27 6 31 15 9 10 24 -8 24 -15 1 -15 3 5 19 27 23 27 28
5 34 -15 3 -14 6 7 15 18 8 20 11 8 11 -10 1 -18 5 -18 10 0 6 8 16 18 23 13
10 18 31 20 88 2 41 8 76 13 78 17 7 9 20 -21 32 -16 7 -30 18 -30 24 0 12
-45 36 -66 36 -7 0 -20 10 -28 22 -9 12 -16 18 -16 13 0 -6 -5 -2 -11 8 -11
18 -122 77 -146 77 -30 0 -21 51 14 88 10 10 27 34 37 53 11 19 45 66 76 104
108 134 209 300 188 308 -9 4 -8 6 3 6 30 2 147 271 225 521 30 94 43 230 23
230 -10 0 -11 2 -2 8 8 5 9 19 3 47 -5 22 -5 42 0 45 4 3 11 28 15 55 18 135
41 207 95 285 9 14 23 41 30 60 8 19 18 38 23 41 5 3 11 24 14 46 4 32 -3 59
-32 129 -48 117 -50 130 -29 211 15 55 19 107 19 281 0 116 4 212 8 212 5 0 6
4 3 9 -3 5 1 14 9 21 17 14 21 105 5 115 -6 3 -7 30 -3 65 4 40 2 60 -5 60 -6
0 -14 9 -17 21 -4 12 -12 18 -21 15 -7 -3 -16 -1 -19 4 -4 6 0 10 7 10 10 0
10 2 1 8 -19 12 -61 100 -68 144 -5 28 -19 52 -48 79 -30 30 -37 43 -29 51 29
29 -1 71 -46 66 -23 -3 -27 1 -27 24 -1 38 -33 71 -63 63 -18 -4 -33 4 -72 42
-28 26 -50 54 -50 61 0 6 -7 12 -15 12 -25 0 -65 23 -65 37 0 7 -9 13 -19 13
-11 0 -22 4 -25 8 -3 5 -19 9 -35 10 -17 0 -51 10 -77 21 -26 12 -65 21 -87
21 -23 0 -54 9 -73 21 -19 11 -38 18 -44 14 -15 -9 -180 -13 -180 -3 0 12 -28
10 -35 -3z m1060 -759 c3 -6 -1 -13 -10 -16 -19 -8 -30 0 -20 15 8 14 22 14
30 1z m-935 -30 c0 -5 -6 -10 -14 -10 -8 0 -16 -7 -20 -15 -7 -18 -26 -20 -26
-2 0 7 10 17 23 23 29 15 37 16 37 4z m70 -70 c6 0 10 4 10 8 0 4 9 8 20 8 15
0 20 -7 20 -28 0 -15 4 -29 9 -32 4 -3 6 6 3 19 -5 29 14 34 23 6 3 -10 17
-22 31 -25 14 -4 29 -18 34 -31 5 -14 17 -25 25 -25 10 0 15 -7 13 -17 -2 -12
3 -17 14 -15 19 3 32 -13 23 -28 -5 -8 -11 -7 -21 1 -19 16 -44 4 -44 -22 0
-14 5 -19 14 -16 10 4 15 -4 18 -24 5 -34 -6 -46 -27 -29 -8 7 -16 9 -16 4 -4
-31 -3 -40 5 -52 5 -7 12 -33 17 -58 7 -34 19 -56 49 -85 22 -21 47 -39 56
-39 9 0 14 -6 11 -12 -6 -16 32 -85 50 -92 9 -4 13 3 14 22 0 25 1 26 10 6 8
-16 6 -29 -10 -56 -11 -20 -17 -45 -14 -57 4 -15 1 -21 -11 -21 -10 0 -13 -6
-10 -15 7 -17 -7 -20 -21 -6 -12 12 -92 18 -101 8 -13 -13 -22 -7 -30 16 -7
21 -7 21 -16 2 -7 -17 -8 -17 -5 5 3 24 1 25 -45 23 -27 -2 -48 1 -48 7 0 5
-6 10 -14 10 -8 0 -16 6 -18 12 -3 7 -13 13 -24 13 -12 0 -18 6 -18 18 1 9 -2
17 -7 17 -5 0 -9 -6 -9 -12 0 -7 -9 -2 -20 12 -11 14 -20 19 -20 12 0 -8 -11
-2 -27 13 -15 14 -33 25 -38 25 -14 0 -74 31 -111 57 -16 11 -33 22 -39 23
-23 4 -80 35 -102 56 l-24 22 23 16 c17 12 24 13 30 3 6 -9 10 -9 18 3 7 12
13 13 29 3 16 -10 18 -9 14 6 -5 20 33 54 50 44 25 -15 30 66 7 106 -8 13 -9
12 -10 -8 0 -18 -3 -22 -11 -14 -16 16 -2 33 39 50 35 14 36 16 17 29 -13 10
-16 17 -9 22 6 4 14 19 18 35 5 21 13 27 34 28 l27 1 -25 7 c-17 5 -21 9 -13
14 7 5 22 3 34 -4 17 -8 23 -8 29 1 4 7 12 10 18 6 5 -3 13 5 16 18 4 18 12
24 26 21 15 -3 20 2 20 18 1 20 2 20 16 -5 8 -16 19 -28 24 -28z m518 23 c-2
-10 -9 -18 -16 -17 -6 1 -37 2 -67 3 -42 1 -55 5 -55 16 0 12 15 15 71 15 62
0 70 -2 67 -17z m205 3 c8 -21 5 -21 -67 -18 -49 3 -66 7 -66 18 0 20 126 20
133 0z m140 -71 c1 -5 -6 -11 -15 -13 -11 -2 -18 3 -18 13 0 17 30 18 33 0z
m-1153 -221 c0 -2 -12 -4 -26 -4 -14 0 -23 4 -20 9 6 8 46 4 46 -5z m35 -4 c3
-5 -1 -10 -9 -10 -9 0 -16 5 -16 10 0 6 4 10 9 10 6 0 13 -4 16 -10z m-325
-271 c8 -13 18 -18 28 -15 13 5 12 2 -2 -9 -19 -15 -19 -15 2 -15 22 0 30 -14
14 -24 -5 -3 -7 -19 -4 -37 4 -28 2 -30 -16 -25 -11 4 -23 2 -27 -4 -9 -15
-25 -12 -25 5 0 8 -9 19 -21 25 -16 9 -19 19 -17 48 3 32 7 37 31 40 23 3 26
6 16 18 -8 9 -8 14 -1 14 6 0 16 -9 22 -21z m655 -139 c-3 -5 -11 -10 -16 -10
-6 0 -7 5 -4 10 3 6 11 10 16 10 6 0 7 -4 4 -10z m-669 -54 c9 -19 8 -25 -7
-35 -27 -16 -47 -14 -59 9 -7 14 -7 20 0 20 5 0 10 7 10 15 0 25 44 18 56 -9z
m841 8 c-3 -3 -12 -4 -19 -1 -8 3 -5 6 6 6 11 1 17 -2 13 -5z m-222 -214 c38
-19 53 -39 47 -62 -2 -10 2 -20 12 -24 13 -5 14 -10 5 -20 -6 -7 -8 -23 -4
-34 5 -15 0 -29 -16 -46 -16 -17 -24 -38 -24 -64 0 -21 3 -36 7 -34 3 2 9 0
13 -6 3 -5 1 -10 -4 -10 -6 0 -11 -7 -11 -15 0 -8 5 -15 10 -15 6 0 10 5 10
10 0 6 5 10 10 10 6 0 10 -7 10 -15 0 -9 -9 -15 -25 -15 -16 0 -25 -6 -25 -15
0 -11 7 -14 25 -9 23 6 30 -2 26 -28 0 -5 3 -8 9 -8 5 0 7 -7 4 -15 -5 -11 1
-15 25 -15 17 0 31 -5 31 -11 0 -7 -12 -10 -30 -7 -16 3 -30 1 -30 -3 0 -4 19
-9 43 -11 35 -2 41 -6 39 -22 -2 -10 1 -22 6 -25 5 -3 21 -25 36 -48 14 -24
31 -43 37 -43 5 0 20 -12 33 -27 l23 -26 14 31 c11 25 18 30 34 26 11 -4 24
-10 30 -15 5 -5 22 -9 37 -9 34 0 74 -36 84 -74 3 -14 12 -26 20 -26 16 0 19
-19 4 -21 -5 -1 -15 -2 -22 -3 -6 0 -13 -7 -16 -14 -2 -7 2 -10 12 -6 12 4 16
0 16 -15 0 -12 5 -21 10 -21 6 0 10 -4 10 -10 0 -5 -8 -10 -18 -10 -10 0 -19
-7 -19 -15 0 -8 6 -15 14 -15 7 0 13 -4 13 -10 0 -5 -11 -10 -24 -10 -13 0
-31 -3 -40 -6 -11 -4 -16 -1 -16 10 0 9 -5 16 -11 16 -7 0 -10 -12 -7 -30 3
-17 1 -30 -4 -30 -4 0 -8 8 -8 17 0 9 -10 27 -22 40 -19 20 -20 27 -10 43 7
11 12 22 12 24 0 6 -128 66 -137 65 -27 -5 -45 2 -40 16 4 8 2 17 -2 20 -13 8
-20 -32 -8 -44 6 -6 7 -14 2 -18 -4 -5 -10 -2 -12 5 -3 6 -12 12 -22 12 -9 0
-22 5 -29 12 -9 9 -12 9 -12 1 0 -7 5 -15 11 -18 12 -8 -34 -35 -58 -35 -8 0
-23 10 -34 23 -10 12 -18 18 -19 12 0 -5 -20 -10 -45 -10 -35 0 -48 5 -60 23
-9 12 -20 20 -25 17 -5 -3 -11 -1 -14 4 -8 12 -84 51 -100 51 -8 0 -16 5 -18
11 -2 6 -14 8 -31 4 -15 -4 -24 -11 -21 -16 11 -18 -51 -4 -75 17 -9 8 35 33
56 34 17 0 21 4 16 17 -5 11 -3 14 6 8 14 -8 60 39 61 63 0 14 16 16 25 2 11
-18 43 -11 50 11 4 11 4 23 1 26 -10 10 15 33 35 33 26 0 25 37 -1 45 -21 7
-28 25 -10 25 6 0 10 6 10 14 0 8 7 17 16 20 9 4 14 13 10 21 -4 11 1 15 17
15 17 0 19 2 7 9 -8 6 -18 7 -22 5 -4 -3 -8 6 -8 20 0 16 6 26 15 26 8 0 15 5
15 10 0 6 -5 10 -11 10 -5 0 -7 5 -4 10 4 6 2 16 -3 23 -17 22 -13 83 8 102
21 19 27 45 11 45 -5 0 -3 14 6 30 8 17 18 29 21 27 4 -2 21 -9 37 -17z m35
16 c0 -11 -19 -15 -25 -6 -3 5 1 10 9 10 9 0 16 -2 16 -4z m-1591 -25 c8 -5
11 -16 8 -25 -4 -10 -1 -16 8 -16 7 0 17 -5 21 -11 4 -7 -7 -10 -33 -8 -21 2
-44 0 -51 -5 -7 -4 -12 -3 -12 3 0 5 6 12 13 15 9 5 9 7 -1 12 -10 5 -10 10 4
25 19 21 23 22 43 10z m918 -18 c-7 -6 -46 10 -41 18 3 5 14 3 24 -3 11 -7 18
-13 17 -15z m-1072 -38 c-8 -21 -18 -36 -21 -33 -2 3 3 22 12 42 23 47 30 39
9 -9z m1431 8 c20 -27 17 -45 -6 -38 -11 4 -20 2 -20 -4 0 -6 7 -11 15 -11 21
0 19 -30 -2 -46 -16 -12 -16 -15 -3 -23 11 -8 12 -13 4 -21 -12 -12 -7 -50 6
-50 18 0 -10 -85 -30 -92 -7 -2 -6 -10 4 -23 14 -18 15 -18 16 -3 0 10 11 20
25 24 40 10 38 0 -4 -27 -21 -13 -43 -36 -49 -51 -6 -16 -17 -28 -25 -28 -7 0
-19 -11 -25 -25 -8 -16 -20 -25 -35 -25 -21 0 -64 -37 -60 -52 2 -4 -6 -10
-17 -13 -19 -6 -24 -16 -21 -42 1 -7 -5 -13 -14 -13 -8 0 -15 -5 -15 -11 0 -5
-4 -8 -8 -5 -5 3 -9 -1 -9 -9 0 -8 6 -16 14 -19 7 -3 13 -18 13 -34 0 -37 18
-92 39 -115 17 -20 71 -47 111 -57 17 -4 24 -11 22 -23 -3 -16 0 -17 18 -7 26
14 65 9 65 -7 0 -14 7 -16 29 -7 20 8 53 -17 93 -67 17 -22 35 -40 40 -39 4 0
15 -6 23 -13 8 -7 23 -11 33 -9 9 2 17 -1 17 -7 0 -6 -7 -11 -15 -11 -8 0 -15
-4 -15 -10 0 -5 7 -6 17 -3 11 4 14 3 9 -5 -4 -7 -2 -20 3 -29 6 -10 11 -12
11 -5 0 6 7 12 15 12 17 0 30 -42 20 -67 -5 -15 -4 -16 6 -6 17 17 29 16 29
-2 0 -8 5 -15 10 -15 6 0 10 5 10 12 0 9 3 9 11 1 13 -13 3 -73 -12 -73 -6 0
-7 9 -4 21 6 18 4 20 -17 14 -12 -4 -25 -11 -28 -15 -8 -10 -84 -6 -92 5 -4 5
-15 10 -25 10 -11 0 -17 6 -15 16 2 14 -6 17 -40 15 -40 -1 -43 1 -40 24 2 24
2 24 -9 5 -7 -11 -17 -23 -22 -26 -12 -9 0 -29 18 -29 7 0 15 -3 17 -7 4 -11
67 -43 84 -43 8 0 14 -7 14 -15 0 -18 -17 -19 -50 -2 -52 27 -151 43 -307 50
-18 1 -33 5 -33 9 0 12 -35 9 -47 -3 -8 -8 -15 -6 -24 9 -10 16 -16 18 -30 9
-13 -8 -21 -7 -32 5 -14 14 -14 18 6 39 12 13 21 27 20 31 -1 3 4 27 11 52 13
44 12 61 -5 50 -4 -2 -6 -11 -2 -19 3 -8 0 -15 -5 -15 -6 0 -16 16 -23 35 -12
33 -29 47 -29 24 0 -5 -5 -7 -11 -3 -8 4 -7 9 2 15 23 14 3 19 -30 8 -25 -9
-35 -9 -44 0 -7 7 -7 11 -2 9 14 -4 17 4 9 25 -5 15 -9 16 -16 5 -7 -9 -8 -8
-4 5 3 10 6 33 6 50 0 22 3 28 9 18 7 -11 11 -9 20 8 11 19 9 21 -15 21 -26 0
-26 1 -11 18 10 10 17 24 17 30 0 7 9 12 20 12 11 0 20 7 20 15 0 20 -46 10
-73 -16 -21 -19 -89 -31 -98 -16 -4 5 -12 6 -18 2 -7 -4 -19 -4 -28 -1 -12 5
-13 9 -3 20 8 11 8 20 1 34 -8 15 -20 19 -51 18 -22 -1 -40 1 -40 6 0 4 9 8
20 8 11 0 20 5 20 11 0 6 -9 13 -20 16 -11 3 -20 11 -20 19 0 7 -5 16 -12 20
-8 5 -9 0 -6 -14 4 -12 2 -22 -3 -22 -14 0 -11 58 3 62 8 3 4 13 -11 29 l-24
24 7 -27 c8 -33 -10 -38 -20 -6 -4 13 -14 28 -22 34 -12 9 -12 13 4 28 14 15
15 19 3 27 -8 5 -19 9 -26 9 -7 0 -17 10 -24 21 -8 16 -8 20 0 14 8 -5 10 1 5
20 -6 24 -4 26 14 21 11 -4 23 -2 27 4 4 6 -5 10 -22 11 -22 0 -24 2 -10 8 10
4 19 11 19 16 0 6 4 18 9 27 7 13 6 16 -5 12 -11 -4 -13 0 -9 17 4 15 0 26
-12 35 -11 8 -13 14 -7 14 16 0 15 33 0 48 -9 9 -8 12 5 12 13 0 16 7 13 32
-2 18 2 41 8 51 8 14 8 20 -4 28 -11 8 -8 9 13 5 24 -6 27 -4 28 21 0 18 3 23
7 13 4 -9 24 -16 52 -19 25 -2 48 -8 52 -15 5 -7 8 -6 8 4 0 11 3 12 8 3 4 -6
22 -11 39 -11 34 1 93 -19 93 -32 0 -11 161 -1 176 11 9 7 16 5 24 -10 9 -17
14 -19 31 -11 11 6 17 15 14 21 -4 5 -2 9 3 9 9 0 24 -24 26 -42 2 -17 18 -20
42 -8 19 11 27 11 32 2 6 -8 15 -6 36 7 19 13 24 20 14 24 -8 3 -4 8 12 15 22
8 25 7 28 -14 5 -33 20 -30 16 3 -1 15 0 32 4 38 4 5 7 15 8 20 0 6 2 16 2 23
3 18 23 15 38 -5z m-56 -18 c0 -8 -4 -15 -9 -15 -13 0 -22 16 -14 24 11 11 23
6 23 -9z m-55 -5 c3 -5 1 -10 -4 -10 -6 0 -11 5 -11 10 0 6 2 10 4 10 3 0 8
-4 11 -10z m893 -45 c-3 -10 -38 -15 -52 -7 -4 2 -3 8 4 12 16 10 51 7 48 -5z
m-948 -5 c0 -5 -4 -10 -10 -10 -5 0 -10 5 -10 10 0 6 5 10 10 10 6 0 10 -4 10
-10z m30 6 c0 -3 -4 -8 -10 -11 -5 -3 -10 -1 -10 4 0 6 5 11 10 11 6 0 10 -2
10 -4z m-1274 -61 c-3 -8 -1 -15 4 -15 6 0 10 -21 10 -46 0 -35 6 -54 25 -76
27 -32 28 -42 4 -33 -44 17 -84 139 -56 170 16 19 20 18 13 0z m1729 -44 c3
-5 1 -12 -5 -16 -5 -3 -10 1 -10 9 0 18 6 21 15 7z m350 -66 c33 -15 17 -19
-34 -9 -17 4 -28 10 -25 15 7 12 24 11 59 -6z m-1498 -37 c-3 -7 -5 -2 -5 12
0 14 2 19 5 13 2 -7 2 -19 0 -25z m20 -204 c-3 -3 -12 -4 -19 -1 -8 3 -5 6 6
6 11 1 17 -2 13 -5z m1458 -36 c-19 -11 -30 -5 -21 11 4 6 14 7 22 4 15 -5 14
-7 -1 -15z m348 -8 c3 -11 1 -20 -4 -20 -5 0 -9 9 -9 20 0 11 2 20 4 20 2 0 6
-9 9 -20z m-308 -10 c3 -5 -1 -10 -10 -10 -9 0 -13 5 -10 10 3 6 8 10 10 10 2
0 7 -4 10 -10z m134 -46 c25 -27 30 -39 22 -47 -9 -9 -14 -8 -20 2 -5 8 -14
10 -21 6 -8 -5 -11 -3 -8 6 3 8 -2 21 -10 29 -12 12 -16 12 -20 2 -3 -10 -8
-8 -17 5 -35 47 31 45 74 -3z m-2102 -11 c3 -7 -4 -9 -16 -6 -12 3 -18 9 -15
15 7 11 26 6 31 -9z m2239 -10 c-10 -10 -19 5 -10 18 6 11 8 11 12 0 2 -7 1
-15 -2 -18z m-1719 -5 c-3 -8 -6 -5 -6 6 -1 11 2 17 5 13 3 -3 4 -12 1 -19z
m1621 -85 c-5 -7 -7 -16 -4 -22 4 -5 -2 -17 -11 -27 -11 -11 -18 -13 -21 -5
-2 6 -10 11 -18 11 -8 0 -14 9 -14 20 0 15 7 20 25 20 14 0 25 5 25 10 0 6 -4
10 -10 10 -5 0 -10 7 -10 15 0 14 3 13 24 -2 17 -13 21 -22 14 -30z m62 -23
c0 -5 -4 -10 -10 -10 -5 0 -10 5 -10 10 0 6 5 10 10 10 6 0 10 -4 10 -10z
m-20 -24 c0 -2 3 -11 6 -20 5 -12 0 -16 -20 -16 -24 0 -35 18 -19 33 7 8 33
10 33 3z m-48 -79 c3 -17 0 -23 -13 -24 -16 -2 -19 15 -10 55 3 11 19 -12 23
-31z m-111 -40 c-10 -9 -11 -8 -5 6 3 10 9 15 12 12 3 -3 0 -11 -7 -18z m59
13 c0 -5 -4 -10 -10 -10 -5 0 -10 5 -10 10 0 6 5 10 10 10 6 0 10 -4 10 -10z
m-1170 -190 c0 -5 -4 -10 -10 -10 -5 0 -10 5 -10 10 0 6 5 10 10 10 6 0 10 -4
10 -10z m676 -12 c3 -23 1 -23 -22 3 -19 21 -19 21 0 18 11 -2 20 -12 22 -21z
m-716 -23 c0 -8 -9 -15 -20 -15 -25 0 -26 17 -2 23 9 3 18 5 20 6 1 0 2 -6 2
-14z m684 -148 c-6 -16 -74 -21 -74 -6 0 6 13 8 30 5 17 -2 30 0 30 5 0 5 4 9
10 9 5 0 7 -6 4 -13z m-492 -129 c-1 -9 7 -22 18 -28 20 -11 21 -10 10 9 -11
22 -4 26 24 15 9 -3 16 -18 16 -32 0 -24 1 -25 14 -7 9 13 18 16 32 10 10 -5
30 -9 44 -11 38 -3 53 -8 84 -29 17 -11 42 -18 62 -17 33 3 33 2 31 -32 -3
-33 -17 -64 -17 -37 0 9 -5 9 -21 0 -13 -6 -24 -7 -28 -2 -3 5 -24 8 -46 7
-22 -1 -50 4 -62 12 -12 8 -26 14 -31 14 -5 0 -28 18 -51 39 -39 37 -62 44
-90 27 -5 -3 -11 1 -15 9 -3 10 1 15 12 15 16 1 16 1 0 11 -10 5 -18 19 -18
30 0 14 5 19 18 17 9 -2 16 -11 14 -20z m382 -96 c2 -4 33 -9 68 -10 42 -2 65
-7 71 -17 4 -8 15 -12 25 -8 15 6 16 5 2 -12 -38 -47 -56 -62 -75 -59 -35 6
-89 13 -107 13 -15 1 -18 10 -18 51 0 37 4 50 14 50 8 0 17 -4 20 -8z m66
-134 c0 -13 -32 -6 -37 9 -3 7 3 9 16 6 12 -3 21 -10 21 -15z m-415 -278 c3
-6 -1 -7 -9 -4 -18 7 -21 14 -7 14 6 0 13 -4 16 -10z m40 -20 c3 -5 1 -10 -4
-10 -6 0 -11 5 -11 10 0 6 2 10 4 10 3 0 8 -4 11 -10z m781 -164 c2 -14 0 -15
-12 -5 -17 14 -19 32 -2 27 6 -2 12 -12 14 -22z m-2286 -67 l0 -59 41 0 c28 0
39 -4 37 -12 -6 -17 -32 -21 -74 -13 l-34 6 0 68 c0 37 3 71 6 74 15 15 24 -8
24 -64z m193 57 c36 -28 14 -76 -35 -76 -23 0 -35 -10 -26 -22 1 -2 -4 -14
-11 -27 -10 -19 -15 -21 -22 -10 -10 16 -12 133 -2 142 11 12 77 7 96 -7z
m338 -27 c3 -14 4 -43 0 -64 -5 -34 -11 -40 -40 -47 -48 -13 -71 10 -71 72 0
57 14 72 64 68 33 -3 41 -7 47 -29z m253 15 c10 -27 6 -110 -6 -122 -17 -17
-64 -15 -82 4 -19 19 -22 104 -4 122 18 18 85 15 92 -4z m124 4 c7 -7 12 -32
12 -57 0 -68 -39 -98 -91 -71 -15 9 -19 22 -19 63 0 29 5 58 12 65 16 16 70
16 86 0z m260 0 c18 -18 15 -98 -5 -120 -20 -22 -51 -23 -80 -3 -18 13 -21 23
-17 62 2 25 9 52 15 59 14 17 71 18 87 2z m132 -7 c5 -11 10 -38 10 -60 0 -30
-6 -44 -22 -55 -52 -37 -98 -4 -91 65 3 24 10 50 15 57 17 20 76 15 88 -7z
m-693 -17 c-9 -9 -28 6 -21 18 4 6 10 6 17 -1 6 -6 8 -13 4 -17z m383 6 c0 -5
-4 -10 -10 -10 -5 0 -10 5 -10 10 0 6 5 10 10 10 6 0 10 -4 10 -10z m1288 -43
c2 -30 -1 -47 -8 -47 -6 0 -8 5 -5 10 3 6 3 16 -2 23 -11 18 -10 68 2 64 6 -2
11 -25 13 -50z m59 17 c-3 -3 -12 -4 -19 -1 -8 3 -5 6 6 6 11 1 17 -2 13 -5z
m3 -28 c0 -2 -9 -6 -20 -9 -11 -3 -18 -1 -14 4 5 9 34 13 34 5z m-209 -33
c-12 -20 -14 -14 -5 12 4 9 9 14 11 11 3 -2 0 -13 -6 -23z m-2384 -5 c-3 -8
-6 -5 -6 6 -1 11 2 17 5 13 3 -3 4 -12 1 -19z m863 12 c0 -5 -7 -10 -15 -10
-8 0 -15 5 -15 10 0 6 7 10 15 10 8 0 15 -4 15 -10z m380 0 c0 -5 -5 -10 -11
-10 -5 0 -7 5 -4 10 3 6 8 10 11 10 2 0 4 -4 4 -10z m1340 -10 c0 -5 -4 -10
-10 -10 -5 0 -10 5 -10 10 0 6 5 10 10 10 6 0 10 -4 10 -10z m-40 -50 c0 -5
-5 -10 -11 -10 -5 0 -7 5 -4 10 3 6 8 10 11 10 2 0 4 -4 4 -10z m-2680 -60 c0
-5 -2 -10 -4 -10 -3 0 -8 5 -11 10 -3 6 -1 10 4 10 6 0 11 -4 11 -10z m-70
-31 c0 -5 -5 -7 -10 -4 -6 3 -14 -4 -19 -17 -6 -13 -10 -18 -10 -11 -2 21 11
43 25 43 8 0 14 -5 14 -11z m-110 -17 c0 -13 -12 -22 -22 -16 -10 6 -1 24 13
24 5 0 9 -4 9 -8z m119 -35 c12 -15 12 -17 -3 -11 -9 3 -16 13 -16 22 0 8 1
13 3 11 1 -2 9 -12 16 -22z m198 -49 c-3 -7 -5 -2 -5 12 0 14 2 19 5 13 2 -7
2 -19 0 -25z m2483 18 c0 -11 -19 -15 -25 -6 -3 5 1 10 9 10 9 0 16 -2 16 -4z
m-2312 -41 c7 -14 12 -32 12 -40 0 -8 6 -15 14 -15 15 0 27 -21 31 -57 3 -23
-9 -31 -20 -13 -3 6 -1 10 6 10 7 0 10 2 8 5 -3 2 -15 2 -28 -2 -16 -4 -21
-11 -18 -24 3 -11 1 -22 -4 -25 -5 -3 -9 -2 -10 3 0 4 -2 19 -3 33 -2 14 4 30
13 37 13 9 14 16 4 30 -6 10 -16 17 -22 16 -6 -2 -11 2 -11 7 0 6 5 10 11 10
5 0 7 5 4 10 -5 8 -12 7 -23 -2 -12 -10 -16 -10 -19 0 -3 6 -9 10 -14 6 -5 -3
-9 0 -9 5 0 11 13 15 38 12 6 -1 12 3 12 9 0 19 17 10 28 -15z m-58 -46 c0 -5
-4 -9 -10 -9 -5 0 -10 7 -10 16 0 8 5 12 10 9 6 -3 10 -10 10 -16z m29 -25
c-16 -20 -28 -17 -22 5 3 12 11 17 19 14 11 -4 12 -9 3 -19z m-84 -13 c-3 -6
-11 -11 -16 -11 -5 0 -4 6 3 14 14 16 24 13 13 -3z m200 -70 c-8 -13 -35 -15
-35 -2 0 5 8 11 18 13 21 5 26 2 17 -11z m30 -11 c3 -5 -1 -10 -9 -10 -9 0
-16 -5 -16 -12 0 -6 -3 -9 -6 -5 -9 8 3 37 15 37 5 0 13 -4 16 -10z m22 -40
c3 -11 9 -20 14 -20 5 0 9 -9 9 -20 0 -11 -5 -20 -11 -20 -5 0 -7 -5 -3 -11 3
-6 -7 -4 -22 4 -16 8 -35 12 -41 10 -7 -3 -13 2 -13 10 0 8 9 17 20 20 12 3
20 14 20 26 0 27 20 27 27 1z m-67 0 c0 -5 -7 -7 -15 -4 -8 4 -15 8 -15 10 0
2 7 4 15 4 8 0 15 -4 15 -10z m2183 -5 c-3 -9 -8 -14 -10 -11 -3 3 -2 9 2 15
9 16 15 13 8 -4z m-2288 -33 c-3 -3 -11 0 -18 7 -9 10 -8 11 6 5 10 -3 15 -9
12 -12z m5 -36 c0 -3 -4 -8 -10 -11 -5 -3 -10 -1 -10 4 0 6 5 11 10 11 6 0 10
-2 10 -4z m24 -11 c-4 -8 -10 -15 -15 -15 -4 0 -6 7 -3 15 4 8 10 15 15 15 4
0 6 -7 3 -15z m206 -35 c0 -27 -35 -3 -38 25 l-4 30 21 -22 c12 -12 21 -27 21
-33z m-715 0 c-3 -5 -10 -10 -16 -10 -5 0 -9 5 -9 10 0 6 7 10 16 10 8 0 12
-4 9 -10z m12 -36 c-3 -3 -12 -4 -19 -1 -8 3 -5 6 6 6 11 1 17 -2 13 -5z
m2175 -18 c-4 -20 7 -20 36 0 26 18 29 11 4 -14 -19 -19 -52 -18 -52 3 0 9
-10 5 -26 -12 -35 -35 -43 -21 -8 16 31 32 51 35 46 7z m-2226 5 c-4 -5 0 -12
6 -14 7 -3 3 -6 -9 -6 -16 -1 -21 3 -17 14 4 8 10 15 16 15 5 0 7 -4 4 -9z
m2071 -13 c-3 -8 -6 -5 -6 6 -1 11 2 17 5 13 3 -3 4 -12 1 -19z m-1247 -18 c0
-5 -4 -10 -10 -10 -5 0 -10 5 -10 10 0 6 5 10 10 10 6 0 10 -4 10 -10z m1087
-35 c0 -8 -4 -15 -7 -15 -4 0 -13 7 -20 15 -10 12 -9 15 7 15 11 0 20 -7 20
-15z m229 7 c24 -15 -1 -37 -43 -38 -31 0 -43 4 -46 17 -4 15 0 16 27 8 39
-11 36 -12 36 6 0 16 9 19 26 7z m594 -7 c0 -8 -4 -15 -10 -15 -5 0 -7 7 -4
15 4 8 8 15 10 15 2 0 4 -7 4 -15z m140 -6 c0 -5 -7 -9 -15 -9 -8 0 -15 -7
-15 -15 0 -18 17 -20 22 -3 3 8 9 8 22 1 13 -7 15 -13 7 -17 -6 -4 -11 -1 -11
6 -1 8 -6 6 -15 -6 -15 -20 -15 -20 -34 1 -19 20 -19 21 0 42 19 20 39 21 39
0z m-1080 -9 c0 -5 -5 -10 -11 -10 -5 0 -7 5 -4 10 3 6 8 10 11 10 2 0 4 -4 4
-10z m40 6 c0 -3 -4 -8 -10 -11 -5 -3 -10 -1 -10 4 0 6 5 11 10 11 6 0 10 -2
10 -4z m1200 -16 c0 -5 -2 -10 -4 -10 -3 0 -8 5 -11 10 -3 6 -1 10 4 10 6 0
11 -4 11 -10z m-2385 -9 c3 -5 1 -12 -5 -16 -5 -3 -10 1 -10 9 0 18 6 21 15 7z
m1115 -41 c-6 -12 -14 -19 -18 -16 -3 4 -1 11 5 17 6 6 9 19 6 28 -5 12 -3 13
6 5 10 -9 10 -17 1 -34z m266 13 c-10 -10 -19 5 -10 18 6 11 8 11 12 0 2 -7 1
-15 -2 -18z m899 17 c3 -5 1 -10 -4 -10 -6 0 -11 5 -11 10 0 6 2 10 4 10 3 0
8 -4 11 -10z m-1960 -10 c3 -5 1 -10 -4 -10 -6 0 -11 5 -11 10 0 6 2 10 4 10
3 0 8 -4 11 -10z m1095 0 c0 -5 -5 -10 -11 -10 -5 0 -7 5 -4 10 3 6 8 10 11
10 2 0 4 -4 4 -10z m-1290 -15 c0 -8 -4 -15 -10 -15 -5 0 -10 7 -10 15 0 8 5
15 10 15 6 0 10 -7 10 -15z m250 11 c0 -11 -19 -15 -25 -6 -3 5 1 10 9 10 9 0
16 -2 16 -4z m620 -21 c-12 -14 -50 -9 -50 7 0 5 9 6 20 3 12 -4 20 -2 20 5 0
6 5 8 10 5 8 -5 8 -11 0 -20z m-510 -1 c0 -2 -9 -4 -20 -4 -11 0 -20 4 -20 9
0 5 9 7 20 4 11 -3 20 -7 20 -9z m1765 6 c3 -5 1 -10 -4 -10 -6 0 -11 5 -11
10 0 6 2 10 4 10 3 0 8 -4 11 -10z m135 -4 c0 -3 -4 -8 -10 -11 -5 -3 -10 -1
-10 4 0 6 5 11 10 11 6 0 10 -2 10 -4z m-1566 -15 c3 -5 -3 -11 -15 -14 -16
-4 -18 -3 -8 9 13 16 16 17 23 5z m136 -22 c0 -4 -7 -6 -15 -3 -8 4 -15 10
-15 15 0 4 7 6 15 3 8 -4 15 -10 15 -15z m1363 -11 c-7 -38 -9 -41 -21 -37
-11 5 5 69 18 69 5 0 7 -14 3 -32z m-2199 7 c-6 -16 -24 -21 -24 -7 0 11 11
22 21 22 5 0 6 -7 3 -15z m524 -10 c-3 -3 -9 2 -12 12 -6 14 -5 15 5 6 7 -7
10 -15 7 -18z m262 15 c0 -5 -5 -10 -11 -10 -5 0 -7 5 -4 10 3 6 8 10 11 10 2
0 4 -4 4 -10z m-430 -10 c0 -5 -4 -10 -10 -10 -5 0 -10 5 -10 10 0 6 5 10 10
10 6 0 10 -4 10 -10z m40 0 c0 -5 -4 -10 -10 -10 -5 0 -10 5 -10 10 0 6 5 10
10 10 6 0 10 -4 10 -10z m-320 -4 c0 -3 -4 -8 -10 -11 -5 -3 -10 -1 -10 4 0 6
5 11 10 11 6 0 10 -2 10 -4z"/>
<path d="M3005 3930 c3 -5 8 -10 11 -10 2 0 4 5 4 10 0 6 -5 10 -11 10 -5 0
-7 -4 -4 -10z"/>
<path d="M2677 3853 c-4 -3 -7 -11 -7 -17 0 -6 5 -5 12 2 6 6 9 14 7 17 -3 3
-9 2 -12 -2z"/>
<path d="M2695 3760 c-3 -5 -1 -10 4 -10 6 0 11 5 11 10 0 6 -2 10 -4 10 -3 0
-8 -4 -11 -10z"/>
<path d="M2970 3670 c0 -5 5 -10 11 -10 5 0 7 5 4 10 -3 6 -8 10 -11 10 -2 0
-4 -4 -4 -10z"/>
<path d="M3080 3431 c0 -4 14 -24 31 -42 20 -21 25 -24 15 -9 -9 14 -19 33
-23 43 -5 17 -23 24 -23 8z"/>
<path d="M3170 3363 l-25 -15 25 6 c14 3 28 6 33 6 4 0 7 5 7 10 0 13 -9 11
-40 -7z"/>
<path d="M2890 2740 c0 -5 7 -10 15 -10 8 0 15 5 15 10 0 6 -7 10 -15 10 -8 0
-15 -4 -15 -10z"/>
<path d="M2789 2640 c-11 -7 -10 -10 4 -16 10 -4 23 -2 28 3 14 14 -13 24 -32
13z"/>
<path d="M2690 2545 c0 -8 5 -15 10 -15 6 0 10 7 10 15 0 8 -4 15 -10 15 -5 0
-10 -7 -10 -15z"/>
<path d="M3238 2454 c-3 -5 -2 -18 3 -29 4 -11 8 -14 8 -7 1 6 9 12 19 13 13
0 14 2 2 6 -8 3 -18 10 -21 16 -4 5 -9 5 -11 1z"/>
<path d="M3330 2420 c0 -5 5 -10 10 -10 6 0 10 5 10 10 0 6 -4 10 -10 10 -5 0
-10 -4 -10 -10z"/>
<path d="M3257 2404 c-15 -16 -7 -44 13 -44 15 0 19 6 17 22 -4 23 -18 33 -30
22z"/>
<path d="M3360 2400 c0 -5 5 -10 11 -10 5 0 7 5 4 10 -3 6 -8 10 -11 10 -2 0
-4 -4 -4 -10z"/>
<path d="M3300 2389 c0 -5 5 -7 10 -4 6 3 10 8 10 11 0 2 -4 4 -10 4 -5 0 -10
-5 -10 -11z"/>
<path d="M2860 2369 c0 -5 5 -7 10 -4 6 3 10 8 10 11 0 2 -4 4 -10 4 -5 0 -10
-5 -10 -11z"/>
<path d="M3005 2360 c-3 -5 -1 -10 4 -10 6 0 11 5 11 10 0 6 -2 10 -4 10 -3 0
-8 -4 -11 -10z"/>
<path d="M3335 2270 c-3 -5 -1 -10 4 -10 6 0 11 5 11 10 0 6 -2 10 -4 10 -3 0
-8 -4 -11 -10z"/>
<path d="M2370 2930 c0 -5 5 -10 10 -10 6 0 10 5 10 10 0 6 -4 10 -10 10 -5 0
-10 -4 -10 -10z"/>
<path d="M1870 2704 c0 -8 5 -12 10 -9 6 3 10 10 10 16 0 5 -4 9 -10 9 -5 0
-10 -7 -10 -16z"/>
<path d="M1961 2484 c0 -11 3 -14 6 -6 3 7 2 16 -1 19 -3 4 -6 -2 -5 -13z"/>
<path d="M2330 2491 c0 -6 5 -13 10 -16 6 -3 10 1 10 9 0 9 -4 16 -10 16 -5 0
-10 -4 -10 -9z"/>
<path d="M2050 2394 c-11 -12 -10 -18 3 -31 9 -9 20 -13 24 -9 4 4 1 11 -6 16
-8 4 -11 15 -8 24 8 20 3 20 -13 0z"/>
<path d="M2098 2313 c6 -2 18 -2 25 0 6 3 1 5 -13 5 -14 0 -19 -2 -12 -5z"/>
<path d="M2226 2168 c-3 -13 -1 -27 4 -32 7 -7 10 -4 10 6 0 9 3 23 6 32 3 9
2 16 -4 16 -5 0 -12 -10 -16 -22z"/>
<path d="M2408 2080 c-7 -11 -18 -20 -25 -20 -7 0 -10 -7 -6 -16 4 -11 9 -12
16 -5 13 13 28 15 25 4 0 -5 2 -16 6 -25 7 -15 10 -16 23 -3 8 8 11 20 7 27
-5 8 -10 6 -15 -8 -6 -12 -7 -5 -5 24 3 45 -6 54 -26 22z"/>
<path d="M2781 2074 c0 -11 3 -14 6 -6 3 7 2 16 -1 19 -3 4 -6 -2 -5 -13z"/>
<path d="M2465 2060 c-3 -5 1 -10 9 -10 9 0 16 5 16 10 0 6 -4 10 -9 10 -6 0
-13 -4 -16 -10z"/>
<path d="M2745 2060 c-3 -6 1 -7 9 -4 18 7 21 14 7 14 -6 0 -13 -4 -16 -10z"/>
<path d="M2788 2043 c-10 -2 -18 -9 -18 -14 0 -15 43 -7 48 9 4 12 0 13 -30 5z"/>
<path d="M2390 2010 c0 -5 5 -10 10 -10 6 0 10 5 10 10 0 6 -4 10 -10 10 -5 0
-10 -4 -10 -10z"/>
<path d="M2765 1990 c3 -5 8 -10 11 -10 2 0 4 5 4 10 0 6 -5 10 -11 10 -5 0
-7 -4 -4 -10z"/>
<path d="M2777 1959 c7 -7 15 -10 18 -7 3 3 -2 9 -12 12 -14 6 -15 5 -6 -5z"/>
<path d="M2310 1920 c0 -5 5 -10 10 -10 6 0 10 5 10 10 0 6 -4 10 -10 10 -5 0
-10 -4 -10 -10z"/>
<path d="M1122 963 c5 -24 52 -24 56 0 3 13 -3 17 -28 17 -25 0 -31 -4 -28
-17z"/>
<path d="M1457 973 c-4 -3 -7 -15 -7 -25 0 -18 1 -18 25 -1 13 10 25 21 25 26
0 9 -34 9 -43 0z"/>
<path d="M1473 911 c-29 -24 -29 -31 1 -31 22 0 36 16 36 41 0 14 -13 10 -37
-10z"/>
<path d="M1717 973 c-4 -3 -7 -15 -7 -25 0 -18 1 -18 25 -1 13 10 25 21 25 26
0 9 -34 9 -43 0z"/>
<path d="M1733 911 c-29 -24 -29 -31 1 -31 22 0 36 16 36 41 0 14 -13 10 -37
-10z"/>
<path d="M1837 958 c-8 -31 -3 -33 27 -11 32 23 33 33 2 33 -16 0 -26 -7 -29
-22z"/>
<path d="M1863 911 c-29 -25 -29 -31 2 -31 20 0 25 5 25 25 0 30 1 29 -27 6z"/>
<path d="M2097 973 c-9 -9 -9 -43 1 -43 9 1 52 36 52 44 0 8 -45 8 -53 -1z"/>
<path d="M2116 905 c-28 -23 -28 -23 -6 -30 27 -8 43 5 38 33 -3 20 -4 20 -32
-3z"/>
<path d="M2227 973 c-4 -3 -7 -17 -7 -30 l0 -25 29 24 c15 13 26 26 24 31 -5
9 -37 9 -46 0z"/>
<path d="M2251 909 c-16 -13 -21 -23 -14 -30 16 -16 43 1 43 27 0 29 1 28 -29
3z"/>
<path d="M832 989 c-9 -14 -19 -18 -30 -14 -9 3 -2 -10 17 -29 33 -34 57 -43
31 -11 -7 9 -10 27 -6 45 7 36 5 37 -12 9z"/>
<path d="M3600 950 c8 -5 11 -10 6 -10 -5 0 -3 -6 3 -14 8 -10 8 -16 -3 -25
-11 -9 -15 -9 -19 1 -3 7 -5 4 -5 -7 0 -20 -6 -51 -17 -86 -6 -17 -3 -19 22
-14 27 6 27 6 9 -9 -11 -9 -23 -16 -27 -16 -4 0 -10 -9 -14 -20 -5 -15 -11
-17 -28 -11 -24 9 -47 4 -47 -9 0 -4 11 -7 25 -7 29 0 44 -11 30 -21 -6 -4
-10 -20 -10 -37 0 -40 -16 -64 -27 -38 -4 10 -5 0 -1 -21 4 -26 2 -37 -5 -32
-6 3 -13 2 -17 -3 -3 -6 -12 -8 -20 -4 -17 6 -21 -12 -5 -22 7 -4 4 -18 -9
-38 -33 -55 -45 -177 -19 -203 4 -3 4 -17 2 -31 -3 -18 -1 -23 8 -17 7 4 5 -2
-5 -13 -21 -24 -19 -45 6 -55 9 -4 17 -12 17 -18 0 -6 -4 -9 -9 -5 -17 10 -21
-12 -6 -25 12 -10 15 -10 15 1 0 13 47 59 60 59 4 0 6 15 4 34 -3 21 1 38 11
46 19 16 19 30 1 30 -19 0 -32 40 -16 50 9 6 9 9 -1 13 -12 4 -11 7 1 16 21
15 28 14 40 -9 9 -16 8 -20 -5 -20 -19 0 -20 -16 -1 -23 8 -3 13 -14 12 -24
-2 -10 0 -20 5 -23 6 -4 14 -34 18 -72 1 -4 7 -5 14 -2 9 3 13 -4 12 -23 -1
-15 1 -32 4 -38 3 -5 6 -14 6 -20 0 -5 19 -10 42 -10 33 1 40 -2 31 -12 -8
-10 -7 -13 3 -13 9 -1 8 -4 -4 -11 -20 -12 -60 -2 -52 12 10 15 -12 10 -25 -6
-7 -8 -20 -15 -30 -15 -33 0 -30 -15 5 -25 42 -12 43 -32 1 -27 -20 3 -27 0
-24 -10 4 -10 77 -14 371 -16 l366 -3 -16 29 c-18 32 -12 62 13 62 11 0 15 -6
11 -20 -3 -12 1 -23 10 -29 11 -6 12 -10 4 -15 -33 -21 2 -26 163 -26 l174 0
2 87 c1 49 3 113 5 143 12 157 12 260 1 273 -14 16 -85 65 -136 93 -38 21 -38
21 -44 1 -3 -11 2 -33 10 -48 7 -15 14 -46 14 -68 0 -22 7 -46 15 -55 8 -8 15
-22 15 -30 0 -9 3 -16 8 -16 6 0 7 -21 3 -123 0 -24 -5 -36 -12 -32 -6 4 -8
13 -5 20 2 7 -4 30 -14 51 -12 22 -17 47 -14 61 4 14 -1 34 -12 51 -10 15 -18
30 -17 33 1 3 -9 4 -22 1 -15 -2 -25 0 -25 7 0 7 5 9 11 5 18 -11 -1 59 -20
73 -15 11 -14 12 2 13 9 0 17 5 17 11 0 6 -10 8 -22 5 -13 -3 -17 -3 -10 0 17
8 15 63 -3 70 -8 4 -12 10 -9 15 3 5 0 9 -6 9 -7 0 -10 6 -7 13 4 10 -3 12
-24 9 -20 -3 -31 1 -35 12 -3 9 -10 16 -16 16 -5 0 -6 -4 -3 -10 3 -5 -1 -10
-9 -10 -8 0 -18 5 -21 11 -4 6 -13 8 -21 5 -7 -3 -16 0 -20 6 -4 7 -3 8 4 4 7
-4 12 -3 12 2 0 6 -6 12 -13 15 -8 3 -14 -5 -15 -24 -1 -16 1 -28 6 -27 14 5
64 -41 57 -52 -5 -8 -12 -7 -23 3 -10 8 -32 21 -49 30 -32 15 -33 15 -33 -8 0
-13 -5 -27 -11 -30 -17 -11 -23 3 -9 20 7 9 9 22 4 32 -4 10 -8 20 -8 23 -3
17 -50 50 -71 50 -19 0 -25 5 -23 16 2 10 -3 19 -9 21 -9 3 -13 -9 -13 -41 0
-42 -13 -62 -22 -35 -3 9 -10 8 -28 -1 -18 -10 -25 -10 -28 -1 -2 7 -10 17
-17 24 -6 6 -10 19 -7 29 4 16 -31 57 -50 58 -3 0 -9 -19 -13 -41 -6 -33 -4
-44 9 -51 9 -5 16 -15 16 -21 0 -7 8 -20 18 -29 29 -28 41 -46 35 -52 -4 -3
-1 -6 5 -6 7 0 12 5 12 10 0 6 5 10 10 10 7 0 7 -6 0 -19 -11 -22 2 -71 20
-71 5 0 10 -5 10 -11 0 -6 15 -30 33 -52 17 -23 32 -44 33 -47 3 -20 19 -40
31 -40 13 0 13 -3 3 -15 -8 -10 -9 -15 -2 -15 6 0 22 -18 34 -40 14 -23 28
-38 36 -35 8 3 10 0 6 -6 -3 -6 3 -23 14 -38 29 -40 64 -120 60 -139 -2 -10
-17 11 -37 51 -19 37 -38 67 -43 67 -4 0 -8 7 -8 15 0 8 -9 24 -20 35 -11 11
-20 23 -20 26 0 3 -11 20 -25 38 -14 18 -25 37 -25 42 0 5 -10 21 -23 36 -12
15 -40 53 -62 84 -22 31 -50 67 -62 81 -13 13 -23 28 -23 32 0 4 -10 19 -22
33 -13 13 -35 43 -51 66 -15 23 -32 42 -38 42 -6 0 -8 9 -4 19 4 13 -2 25 -20
39 -14 11 -25 23 -25 26 0 4 -24 31 -54 61 -40 40 -56 51 -65 42 -8 -8 -11 -7
-11 6 0 10 -8 17 -17 17 -15 0 -16 -2 -3 -10z m0 -205 c0 -2 -9 -9 -20 -15
-12 -6 -20 -7 -20 -1 0 5 8 12 18 14 9 3 18 5 20 6 1 0 2 -1 2 -4z m766 -177
c-2 -29 -5 -57 -5 -61 -1 -5 -6 -5 -12 -1 -6 3 -9 17 -6 30 3 16 -3 29 -18 40
-18 13 -20 20 -11 30 6 7 21 13 33 14 21 0 22 -4 19 -52z m-208 13 c3 -8 -1
-12 -9 -9 -7 2 -15 10 -17 17 -3 8 1 12 9 9 7 -2 15 -10 17 -17z m12 -97 c0
-8 -4 -12 -10 -9 -5 3 -10 10 -10 16 0 5 5 9 10 9 6 0 10 -7 10 -16z m25 -34
c3 -5 1 -10 -4 -10 -6 0 -11 5 -11 10 0 6 2 10 4 10 3 0 8 -4 11 -10z m-575
-60 c0 -5 -4 -10 -10 -10 -5 0 -10 5 -10 10 0 6 5 10 10 10 6 0 10 -4 10 -10z
m215 -21 c4 -6 -1 -17 -11 -24 -16 -11 -17 -17 -7 -34 10 -15 9 -20 -2 -25 -8
-3 -15 -12 -15 -20 0 -10 6 -13 15 -10 10 4 13 2 10 -8 -4 -11 -16 -13 -43 -9
-31 5 -37 10 -39 34 -1 18 5 30 18 37 10 6 19 19 19 30 0 28 42 51 55 29z
m417 -19 c5 -32 -4 -46 -22 -35 -7 4 -7 13 0 24 6 12 5 22 -2 29 -9 9 -8 12 4
12 10 0 17 -11 20 -30z m262 -100 c-6 -5 -24 21 -24 34 0 6 6 1 14 -10 8 -10
12 -21 10 -24z m-819 20 c-3 -5 -11 -10 -16 -10 -6 0 -7 5 -4 10 3 6 11 10 16
10 6 0 7 -4 4 -10z m825 -39 c0 -6 -4 -13 -10 -16 -5 -3 -10 1 -10 9 0 9 5 16
10 16 6 0 10 -4 10 -9z m-708 -27 c-2 -10 -4 -27 -5 -36 -1 -16 -3 -16 -20 -1
-17 16 -17 16 -11 0 4 -12 1 -17 -10 -17 -10 0 -13 6 -10 15 4 10 0 15 -11 15
-14 0 -14 2 -3 13 42 38 75 43 70 11z m-312 0 c0 -2 -12 -4 -26 -4 -14 0 -23
4 -20 9 6 8 46 4 46 -5z m204 1 c3 -8 1 -15 -4 -15 -6 0 -10 7 -10 15 0 8 2
15 4 15 2 0 6 -7 10 -15z m566 -9 c0 -3 -4 -8 -10 -11 -5 -3 -10 -1 -10 4 0 6
5 11 10 11 6 0 10 -2 10 -4z m276 -8 c5 -8 2 -9 -10 -5 -14 6 -16 3 -11 -13 4
-11 2 -20 -4 -20 -5 0 -9 -19 -8 -42 2 -32 -2 -43 -14 -46 -21 -4 -33 37 -13
45 20 7 17 50 -3 58 -17 6 -17 7 1 21 24 17 52 18 62 2z m-849 -140 c-3 -8 -6
-5 -6 6 -1 11 2 17 5 13 3 -3 4 -12 1 -19z"/>
<path d="M872 903 c4 -22 43 -25 43 -3 0 8 -11 16 -23 18 -19 3 -23 0 -20 -15z"/>
<path d="M800 825 c0 -8 4 -15 8 -15 5 0 9 7 9 15 0 8 -4 15 -9 15 -4 0 -8 -7
-8 -15z"/>
<path d="M3496 761 c-4 -5 1 -8 9 -7 21 3 31 16 12 16 -9 0 -18 -4 -21 -9z"/>
<path d="M803 743 c4 -3 2 -12 -4 -20 -9 -9 -8 -13 0 -13 6 0 11 5 11 10 0 6
5 10 10 10 16 0 11 -27 -6 -34 -9 -4 -15 -9 -12 -12 7 -6 58 17 58 27 0 10
-41 39 -54 39 -5 0 -6 -3 -3 -7z"/>
<path d="M4438 630 c18 -31 32 -39 32 -17 0 6 -12 20 -25 30 l-24 17 17 -30z"/>
<path d="M3460 600 c0 -5 5 -10 11 -10 5 0 7 5 4 10 -3 6 -8 10 -11 10 -2 0
-4 -4 -4 -10z"/>
<path d="M2880 440 c-8 -5 -12 -12 -9 -15 4 -3 12 1 19 10 14 17 11 19 -10 5z"/>
<path d="M2871 394 c0 -11 3 -14 6 -6 3 7 2 16 -1 19 -3 4 -6 -2 -5 -13z"/>
<path d="M4711 373 c-1 -12 4 -25 9 -28 12 -7 12 2 0 30 -8 19 -9 19 -9 -2z"/>
<path d="M4520 351 c0 -6 5 -13 10 -16 6 -3 10 1 10 9 0 9 -4 16 -10 16 -5 0
-10 -4 -10 -9z"/>
<path d="M2800 331 c0 -15 -33 -22 -42 -9 -7 10 -9 9 -5 -2 2 -8 15 -16 28
-18 19 -2 25 2 26 18 1 11 0 20 -3 20 -2 0 -4 -4 -4 -9z"/>
<path d="M4702 313 c-7 -13 -14 -83 -17 -168 l-4 -145 72 1 c40 1 62 4 49 6
-18 4 -23 10 -21 31 2 15 0 32 -3 37 -3 6 -6 32 -6 59 0 27 -5 53 -10 58 -6 6
-8 17 -5 24 3 8 -3 26 -12 41 -10 14 -21 38 -25 52 l-7 26 -11 -22z"/>
<path d="M4820 292 c0 -7 0 -15 1 -18 0 -4 -5 -10 -12 -14 -20 -13 -19 -59 2
-96 23 -41 25 -92 4 -100 -8 -4 -15 -16 -14 -28 0 -21 0 -21 9 1 5 13 17 23
27 23 13 0 14 -3 5 -12 -7 -7 -12 -20 -12 -30 0 -15 8 -18 49 -18 57 0 70 17
45 56 -9 13 -20 39 -23 57 -4 17 -12 32 -18 32 -20 0 -24 12 -9 24 12 10 11
18 -3 57 -18 45 -51 89 -51 66z"/>
<path d="M2770 265 c0 -8 6 -15 13 -15 8 0 14 7 14 15 0 8 -6 15 -14 15 -7 0
-13 -7 -13 -15z"/>
<path d="M2666 135 c-3 -9 0 -15 9 -15 8 0 15 7 15 15 0 8 -4 15 -9 15 -5 0
-11 -7 -15 -15z"/>
<path d="M2620 70 c0 -5 7 -10 16 -10 8 0 12 5 9 10 -3 6 -10 10 -16 10 -5 0
-9 -4 -9 -10z"/>
<path d="M2670 60 c0 -11 -6 -20 -14 -20 -10 0 -12 -7 -8 -22 l5 -22 10 22 c6
12 14 22 19 22 4 0 8 9 8 20 0 11 -4 20 -10 20 -5 0 -10 -9 -10 -20z"/>
<path d="M3512 31 c-7 -4 -8 -12 -2 -21 8 -13 11 -13 25 1 14 14 14 17 2 22
-7 3 -19 2 -25 -2z"/>
<path d="M2690 16 c0 -9 5 -16 10 -16 6 0 10 4 10 9 0 6 -4 13 -10 16 -5 3
-10 -1 -10 -9z"/>
<path d="M2535 10 c-28 -7 -28 -8 12 -9 23 0 45 4 48 9 7 11 -16 11 -60 0z"/>
</g>
</svg>
